<svg width="144" height="48" viewBox="0 0 144 48" fill="none" xmlns="http://www.w3.org/2000/svg">
<rect x="0.5" width="143.5" height="48" rx="2" fill="#5CB85F"/>
<g clip-path="url(#clip0_18344_7941)">
<path d="M52 18H46.75C46.3522 18 45.9706 18.158 45.6893 18.4393C45.408 18.7206 45.25 19.1022 45.25 19.5V30C45.25 30.3978 45.408 30.7794 45.6893 31.0607C45.9706 31.342 46.3522 31.5 46.75 31.5H57.25C57.6478 31.5 58.0294 31.342 58.3107 31.0607C58.592 30.7794 58.75 30.3978 58.75 30V24.75" stroke="white" stroke-width="2" stroke-linecap="round" stroke-linejoin="round"/>
<path d="M57.625 16.875C57.9234 16.5766 58.328 16.409 58.75 16.409C59.172 16.409 59.5766 16.5766 59.875 16.875C60.1734 17.1734 60.341 17.578 60.341 18C60.341 18.4219 60.1734 18.8266 59.875 19.125L52.75 26.25L49.75 27L50.5 24L57.625 16.875Z" stroke="white" stroke-width="2" stroke-linecap="round" stroke-linejoin="round"/>
</g>
<path d="M82.2676 20.708H76.9355V22.8477H81.8301V24.5977H76.9355V27.1885H82.5137V29H74.8779V18.9238H82.2676V20.708ZM86.7451 21.3711C87.1963 21.3711 87.5973 21.4714 87.9482 21.6719C88.2992 21.8678 88.584 22.1413 88.8027 22.4922V18.9375H90.7783V29H88.8848V27.9678C88.6068 28.4098 88.29 28.7311 87.9346 28.9316C87.5791 29.1322 87.137 29.2324 86.6084 29.2324C85.738 29.2324 85.0042 28.8815 84.4072 28.1797C83.8148 27.4733 83.5186 26.5687 83.5186 25.4658C83.5186 24.1943 83.8102 23.194 84.3936 22.4648C84.9814 21.7357 85.7653 21.3711 86.7451 21.3711ZM87.1689 27.5918C87.7204 27.5918 88.1396 27.3867 88.4268 26.9766C88.7139 26.5664 88.8574 26.0355 88.8574 25.3838C88.8574 24.4723 88.6273 23.8206 88.167 23.4287C87.8844 23.1917 87.5563 23.0732 87.1826 23.0732C86.613 23.0732 86.1937 23.2897 85.9248 23.7227C85.6605 24.151 85.5283 24.6842 85.5283 25.3223C85.5283 26.0104 85.6628 26.5618 85.9316 26.9766C86.2051 27.3867 86.6175 27.5918 87.1689 27.5918ZM94.5586 20.6602H92.583V18.8623H94.5586V20.6602ZM92.583 21.5488H94.5586V29H92.583V21.5488ZM95.6865 23.0049V21.6172H96.7256V19.5391H98.6533V21.6172H99.8633V23.0049H98.6533V26.9424C98.6533 27.2477 98.6921 27.4391 98.7695 27.5166C98.847 27.5895 99.084 27.626 99.4805 27.626C99.5397 27.626 99.6012 27.626 99.665 27.626C99.7334 27.6214 99.7995 27.6169 99.8633 27.6123V29.0684L98.9404 29.1025C98.0199 29.1344 97.391 28.9749 97.0537 28.624C96.835 28.4007 96.7256 28.0566 96.7256 27.5918V23.0049H95.6865Z" fill="white"/>
<defs>
<clipPath id="clip0_18344_7941">
<rect width="18" height="18" fill="white" transform="translate(43.75 15)"/>
</clipPath>
</defs>
</svg>
