<svg width="142" height="36" viewBox="0 0 142 36" fill="none" xmlns="http://www.w3.org/2000/svg">
<rect width="142" height="36" rx="2" fill="#0D28A6"/>
<path d="M21 12.75V23.25" stroke="white" stroke-width="2" stroke-linecap="round" stroke-linejoin="round"/>
<path d="M15.75 18H26.25" stroke="white" stroke-width="2" stroke-linecap="round" stroke-linejoin="round"/>
<path d="M45.8213 19.1924H48.3779L47.1201 15.2275L45.8213 19.1924ZM45.9512 12.9238H48.3301L51.8984 23H49.6152L48.9658 20.9287H45.2539L44.5566 23H42.3555L45.9512 12.9238ZM55.7744 15.3711C56.2256 15.3711 56.6266 15.4714 56.9775 15.6719C57.3285 15.8678 57.6133 16.1413 57.832 16.4922V12.9375H59.8076V23H57.9141V21.9678C57.6361 22.4098 57.3193 22.7311 56.9639 22.9316C56.6084 23.1322 56.1663 23.2324 55.6377 23.2324C54.7673 23.2324 54.0335 22.8815 53.4365 22.1797C52.8441 21.4733 52.5479 20.5687 52.5479 19.4658C52.5479 18.1943 52.8395 17.194 53.4229 16.4648C54.0107 15.7357 54.7946 15.3711 55.7744 15.3711ZM56.1982 21.5918C56.7497 21.5918 57.1689 21.3867 57.4561 20.9766C57.7432 20.5664 57.8867 20.0355 57.8867 19.3838C57.8867 18.4723 57.6566 17.8206 57.1963 17.4287C56.9137 17.1917 56.5856 17.0732 56.2119 17.0732C55.6423 17.0732 55.223 17.2897 54.9541 17.7227C54.6898 18.151 54.5576 18.6842 54.5576 19.3223C54.5576 20.0104 54.6921 20.5618 54.9609 20.9766C55.2344 21.3867 55.6468 21.5918 56.1982 21.5918ZM64.333 15.3711C64.7842 15.3711 65.1852 15.4714 65.5361 15.6719C65.887 15.8678 66.1719 16.1413 66.3906 16.4922V12.9375H68.3662V23H66.4727V21.9678C66.1947 22.4098 65.8779 22.7311 65.5225 22.9316C65.167 23.1322 64.7249 23.2324 64.1963 23.2324C63.3258 23.2324 62.5921 22.8815 61.9951 22.1797C61.4027 21.4733 61.1064 20.5687 61.1064 19.4658C61.1064 18.1943 61.3981 17.194 61.9814 16.4648C62.5693 15.7357 63.3532 15.3711 64.333 15.3711ZM64.7568 21.5918C65.3083 21.5918 65.7275 21.3867 66.0146 20.9766C66.3018 20.5664 66.4453 20.0355 66.4453 19.3838C66.4453 18.4723 66.2152 17.8206 65.7549 17.4287C65.4723 17.1917 65.1442 17.0732 64.7705 17.0732C64.2008 17.0732 63.7816 17.2897 63.5127 17.7227C63.2484 18.151 63.1162 18.6842 63.1162 19.3223C63.1162 20.0104 63.2507 20.5618 63.5195 20.9766C63.793 21.3867 64.2054 21.5918 64.7568 21.5918ZM74.1631 12.9238H76.3711L80.3838 19.958V12.9238H82.3457V23H80.2402L76.125 15.8428V23H74.1631V12.9238ZM87.0967 16.957C86.6455 16.957 86.2946 17.0983 86.0439 17.3809C85.7979 17.6634 85.6429 18.0462 85.5791 18.5293H88.6074C88.5755 18.0143 88.4183 17.6247 88.1357 17.3604C87.8577 17.0915 87.5114 16.957 87.0967 16.957ZM87.0967 15.3506C87.7165 15.3506 88.2747 15.4668 88.7715 15.6992C89.2682 15.9316 89.6784 16.2985 90.002 16.7998C90.2936 17.2419 90.4827 17.7546 90.5693 18.3379C90.6195 18.6797 90.64 19.1719 90.6309 19.8145H85.5312C85.5586 20.5618 85.7933 21.0859 86.2354 21.3867C86.5042 21.5736 86.8278 21.667 87.2061 21.667C87.6071 21.667 87.9329 21.5531 88.1836 21.3252C88.3203 21.2021 88.4411 21.0312 88.5459 20.8125H90.5352C90.485 21.2546 90.2549 21.7035 89.8447 22.1592C89.2067 22.8838 88.3135 23.2461 87.165 23.2461C86.2171 23.2461 85.3809 22.9408 84.6562 22.3301C83.9316 21.7194 83.5693 20.7259 83.5693 19.3496C83.5693 18.0599 83.8952 17.071 84.5469 16.3828C85.2031 15.6947 86.0531 15.3506 87.0967 15.3506ZM95.4639 15.5488H97.4395L98.5742 20.915L99.7363 15.5488H101.767L99.6064 23H97.6035L96.4346 17.5723L95.252 23H93.2285L91.1367 15.5488H93.2285L94.3906 20.8945L95.4639 15.5488ZM106.463 18.0439C106.463 16.2848 106.935 14.929 107.878 13.9766C108.698 13.1471 109.742 12.7324 111.009 12.7324C112.704 12.7324 113.944 13.2884 114.728 14.4004C115.16 15.0247 115.393 15.6514 115.425 16.2803H113.319C113.183 15.7972 113.007 15.4326 112.793 15.1865C112.41 14.749 111.843 14.5303 111.091 14.5303C110.325 14.5303 109.721 14.8402 109.279 15.46C108.837 16.0752 108.616 16.9479 108.616 18.0781C108.616 19.2083 108.849 20.056 109.313 20.6211C109.783 21.1816 110.378 21.4619 111.098 21.4619C111.836 21.4619 112.399 21.2204 112.786 20.7373C113 20.4775 113.178 20.0879 113.319 19.5684H115.404C115.222 20.6667 114.755 21.5599 114.003 22.248C113.256 22.9362 112.296 23.2803 111.125 23.2803C109.676 23.2803 108.536 22.8154 107.707 21.8857C106.878 20.9515 106.463 19.6709 106.463 18.0439ZM120.969 19.377C120.846 19.4544 120.72 19.5182 120.593 19.5684C120.47 19.6139 120.299 19.6572 120.08 19.6982L119.643 19.7803C119.232 19.8532 118.938 19.9421 118.761 20.0469C118.46 20.2246 118.31 20.5003 118.31 20.874C118.31 21.2067 118.401 21.4482 118.583 21.5986C118.77 21.7445 118.995 21.8174 119.26 21.8174C119.679 21.8174 120.064 21.6943 120.415 21.4482C120.771 21.2021 120.955 20.7533 120.969 20.1016V19.377ZM119.786 18.4678C120.146 18.4222 120.404 18.3652 120.559 18.2969C120.837 18.1784 120.976 17.9938 120.976 17.7432C120.976 17.4378 120.868 17.2282 120.654 17.1143C120.445 16.9958 120.135 16.9365 119.725 16.9365C119.264 16.9365 118.938 17.0505 118.747 17.2783C118.61 17.4469 118.519 17.6748 118.474 17.9619H116.594C116.635 17.3102 116.817 16.7747 117.141 16.3555C117.656 15.6992 118.54 15.3711 119.793 15.3711C120.609 15.3711 121.333 15.5329 121.967 15.8564C122.6 16.18 122.917 16.7907 122.917 17.6885V21.1064C122.917 21.3434 122.922 21.6305 122.931 21.9678C122.944 22.223 122.983 22.3962 123.047 22.4873C123.111 22.5785 123.206 22.6536 123.334 22.7129V23H121.215C121.156 22.8496 121.115 22.7083 121.092 22.5762C121.069 22.444 121.051 22.2936 121.037 22.125C120.768 22.4167 120.458 22.665 120.107 22.8701C119.688 23.1117 119.214 23.2324 118.686 23.2324C118.011 23.2324 117.453 23.041 117.011 22.6582C116.573 22.2708 116.354 21.724 116.354 21.0176C116.354 20.1016 116.708 19.4385 117.414 19.0283C117.801 18.805 118.371 18.6455 119.123 18.5498L119.786 18.4678ZM128.7 15.3711C128.737 15.3711 128.766 15.3734 128.789 15.3779C128.816 15.3779 128.873 15.3802 128.96 15.3848V17.3809C128.837 17.3672 128.728 17.3581 128.632 17.3535C128.536 17.349 128.459 17.3467 128.399 17.3467C127.616 17.3467 127.089 17.6019 126.82 18.1123C126.67 18.3994 126.595 18.8415 126.595 19.4385V23H124.633V15.5488H126.492V16.8477C126.793 16.3509 127.055 16.0114 127.278 15.8291C127.643 15.5238 128.117 15.3711 128.7 15.3711Z" fill="white"/>
</svg>
