<svg width="88" height="36" viewBox="0 0 88 36" fill="none" xmlns="http://www.w3.org/2000/svg">
<rect x="0.5" width="87" height="36" rx="2" fill="#0D28A6"/>
<path d="M42.3154 12.9238H44.7012L41.3311 19.2129V23H39.2256V19.2129L35.7393 12.9238H38.2207L40.3125 17.3125L42.3154 12.9238ZM49.0898 19.377C48.9668 19.4544 48.8415 19.5182 48.7139 19.5684C48.5908 19.6139 48.4199 19.6572 48.2012 19.6982L47.7637 19.7803C47.3535 19.8532 47.0596 19.9421 46.8818 20.0469C46.5811 20.2246 46.4307 20.5003 46.4307 20.874C46.4307 21.2067 46.5218 21.4482 46.7041 21.5986C46.891 21.7445 47.1165 21.8174 47.3809 21.8174C47.8001 21.8174 48.1852 21.6943 48.5361 21.4482C48.8916 21.2021 49.0762 20.7533 49.0898 20.1016V19.377ZM47.9072 18.4678C48.2673 18.4222 48.5247 18.3652 48.6797 18.2969C48.9577 18.1784 49.0967 17.9938 49.0967 17.7432C49.0967 17.4378 48.9896 17.2282 48.7754 17.1143C48.5658 16.9958 48.2559 16.9365 47.8457 16.9365C47.3854 16.9365 47.0596 17.0505 46.8682 17.2783C46.7314 17.4469 46.6403 17.6748 46.5947 17.9619H44.7148C44.7559 17.3102 44.9382 16.7747 45.2617 16.3555C45.7767 15.6992 46.6608 15.3711 47.9141 15.3711C48.7298 15.3711 49.4544 15.5329 50.0879 15.8564C50.7214 16.18 51.0381 16.7907 51.0381 17.6885V21.1064C51.0381 21.3434 51.0426 21.6305 51.0518 21.9678C51.0654 22.223 51.1042 22.3962 51.168 22.4873C51.2318 22.5785 51.3275 22.6536 51.4551 22.7129V23H49.3359C49.2767 22.8496 49.2357 22.7083 49.2129 22.5762C49.1901 22.444 49.1719 22.2936 49.1582 22.125C48.8893 22.4167 48.5794 22.665 48.2285 22.8701C47.8092 23.1117 47.3353 23.2324 46.8066 23.2324C46.1322 23.2324 45.5739 23.041 45.1318 22.6582C44.6943 22.2708 44.4756 21.724 44.4756 21.0176C44.4756 20.1016 44.8288 19.4385 45.5352 19.0283C45.9225 18.805 46.4922 18.6455 47.2441 18.5498L47.9072 18.4678Z" fill="white"/>
</svg>
