<svg width="144" height="48" viewBox="0 0 144 48" fill="none" xmlns="http://www.w3.org/2000/svg">
<rect x="0.5" y="0.5" width="142.5" height="47" rx="1.5" fill="white"/>
<rect x="0.5" y="0.5" width="142.5" height="47" rx="1.5" stroke="#FA2C5A"/>
<path d="M38.5 19.5H40H52" stroke="#FA2C5A" stroke-width="2" stroke-linecap="round" stroke-linejoin="round"/>
<path d="M42.25 19.5V18C42.25 17.6022 42.408 17.2206 42.6893 16.9393C42.9706 16.658 43.3522 16.5 43.75 16.5H46.75C47.1478 16.5 47.5294 16.658 47.8107 16.9393C48.092 17.2206 48.25 17.6022 48.25 18V19.5M50.5 19.5V30C50.5 30.3978 50.342 30.7794 50.0607 31.0607C49.7794 31.342 49.3978 31.5 49 31.5H41.5C41.1022 31.5 40.7206 31.342 40.4393 31.0607C40.158 30.7794 40 30.3978 40 30V19.5H50.5Z" stroke="#FA2C5A" stroke-width="2" stroke-linecap="round" stroke-linejoin="round"/>
<path d="M46.75 23.25V27.75" stroke="white" stroke-width="2" stroke-linecap="round" stroke-linejoin="round"/>
<path d="M43.75 23.25V27.75" stroke="white" stroke-width="2" stroke-linecap="round" stroke-linejoin="round"/>
<path d="M67.3604 20.6738V27.25H69.3018C70.2952 27.25 70.988 26.7601 71.3799 25.7803C71.5941 25.2425 71.7012 24.6022 71.7012 23.8594C71.7012 22.834 71.5394 22.0479 71.2158 21.501C70.8968 20.9495 70.2588 20.6738 69.3018 20.6738H67.3604ZM69.6572 18.9238C70.2816 18.9329 70.8011 19.0059 71.2158 19.1426C71.9222 19.375 72.4941 19.8011 72.9316 20.4209C73.2826 20.9222 73.5218 21.4645 73.6494 22.0479C73.777 22.6312 73.8408 23.1872 73.8408 23.7158C73.8408 25.0557 73.5719 26.1904 73.0342 27.1201C72.305 28.3734 71.1794 29 69.6572 29H65.3164V18.9238H69.6572ZM78.2158 22.957C77.7646 22.957 77.4137 23.0983 77.1631 23.3809C76.917 23.6634 76.762 24.0462 76.6982 24.5293H79.7266C79.6947 24.0143 79.5374 23.6247 79.2549 23.3604C78.9769 23.0915 78.6305 22.957 78.2158 22.957ZM78.2158 21.3506C78.8356 21.3506 79.3939 21.4668 79.8906 21.6992C80.3874 21.9316 80.7975 22.2985 81.1211 22.7998C81.4128 23.2419 81.6019 23.7546 81.6885 24.3379C81.7386 24.6797 81.7591 25.1719 81.75 25.8145H76.6504C76.6777 26.5618 76.9124 27.0859 77.3545 27.3867C77.6234 27.5736 77.9469 27.667 78.3252 27.667C78.7262 27.667 79.0521 27.5531 79.3027 27.3252C79.4395 27.2021 79.5602 27.0312 79.665 26.8125H81.6543C81.6042 27.2546 81.374 27.7035 80.9639 28.1592C80.3258 28.8838 79.4326 29.2461 78.2842 29.2461C77.3363 29.2461 76.5 28.9408 75.7754 28.3301C75.0508 27.7194 74.6885 26.7259 74.6885 25.3496C74.6885 24.0599 75.0143 23.071 75.666 22.3828C76.3223 21.6947 77.1722 21.3506 78.2158 21.3506ZM85.0586 29H83.1104V18.9238H85.0586V29ZM89.9053 22.957C89.4541 22.957 89.1032 23.0983 88.8525 23.3809C88.6064 23.6634 88.4515 24.0462 88.3877 24.5293H91.416C91.3841 24.0143 91.2269 23.6247 90.9443 23.3604C90.6663 23.0915 90.32 22.957 89.9053 22.957ZM89.9053 21.3506C90.5251 21.3506 91.0833 21.4668 91.5801 21.6992C92.0768 21.9316 92.487 22.2985 92.8105 22.7998C93.1022 23.2419 93.2913 23.7546 93.3779 24.3379C93.4281 24.6797 93.4486 25.1719 93.4395 25.8145H88.3398C88.3672 26.5618 88.6019 27.0859 89.0439 27.3867C89.3128 27.5736 89.6364 27.667 90.0146 27.667C90.4157 27.667 90.7415 27.5531 90.9922 27.3252C91.1289 27.2021 91.2497 27.0312 91.3545 26.8125H93.3438C93.2936 27.2546 93.0635 27.7035 92.6533 28.1592C92.0153 28.8838 91.1221 29.2461 89.9736 29.2461C89.0257 29.2461 88.1895 28.9408 87.4648 28.3301C86.7402 27.7194 86.3779 26.7259 86.3779 25.3496C86.3779 24.0599 86.7038 23.071 87.3555 22.3828C88.0117 21.6947 88.8617 21.3506 89.9053 21.3506ZM93.9932 23.0049V21.6172H95.0322V19.5391H96.96V21.6172H98.1699V23.0049H96.96V26.9424C96.96 27.2477 96.9987 27.4391 97.0762 27.5166C97.1536 27.5895 97.3906 27.626 97.7871 27.626C97.8464 27.626 97.9079 27.626 97.9717 27.626C98.04 27.6214 98.1061 27.6169 98.1699 27.6123V29.0684L97.2471 29.1025C96.3265 29.1344 95.6976 28.9749 95.3604 28.624C95.1416 28.4007 95.0322 28.0566 95.0322 27.5918V23.0049H93.9932ZM102.36 22.957C101.909 22.957 101.558 23.0983 101.308 23.3809C101.062 23.6634 100.907 24.0462 100.843 24.5293H103.871C103.839 24.0143 103.682 23.6247 103.399 23.3604C103.121 23.0915 102.775 22.957 102.36 22.957ZM102.36 21.3506C102.98 21.3506 103.538 21.4668 104.035 21.6992C104.532 21.9316 104.942 22.2985 105.266 22.7998C105.557 23.2419 105.746 23.7546 105.833 24.3379C105.883 24.6797 105.904 25.1719 105.895 25.8145H100.795C100.822 26.5618 101.057 27.0859 101.499 27.3867C101.768 27.5736 102.091 27.667 102.47 27.667C102.871 27.667 103.197 27.5531 103.447 27.3252C103.584 27.2021 103.705 27.0312 103.81 26.8125H105.799C105.749 27.2546 105.519 27.7035 105.108 28.1592C104.47 28.8838 103.577 29.2461 102.429 29.2461C101.481 29.2461 100.645 28.9408 99.9199 28.3301C99.1953 27.7194 98.833 26.7259 98.833 25.3496C98.833 24.0599 99.1589 23.071 99.8105 22.3828C100.467 21.6947 101.317 21.3506 102.36 21.3506Z" fill="#FA2C5A"/>
</svg>
