<svg width="88" height="36" viewBox="0 0 88 36" fill="none" xmlns="http://www.w3.org/2000/svg">
<rect x="1" y="0.5" width="86" height="35" rx="1.5" fill="white"/>
<rect x="1" y="0.5" width="86" height="35" rx="1.5" stroke="#0D28A6"/>
<path d="M33.8877 12.9238V14.708H30.873V23H28.7539V14.708H25.7256V12.9238H33.8877ZM36.7246 14.6602H34.749V12.8623H36.7246V14.6602ZM34.749 15.5488H36.7246V23H34.749V15.5488ZM41.3662 15.3711C41.8174 15.3711 42.2184 15.4714 42.5693 15.6719C42.9202 15.8678 43.2051 16.1413 43.4238 16.4922V12.9375H45.3994V23H43.5059V21.9678C43.2279 22.4098 42.9111 22.7311 42.5557 22.9316C42.2002 23.1322 41.7581 23.2324 41.2295 23.2324C40.359 23.2324 39.6253 22.8815 39.0283 22.1797C38.4359 21.4733 38.1396 20.5687 38.1396 19.4658C38.1396 18.1943 38.4313 17.194 39.0146 16.4648C39.6025 15.7357 40.3864 15.3711 41.3662 15.3711ZM41.79 21.5918C42.3415 21.5918 42.7607 21.3867 43.0479 20.9766C43.335 20.5664 43.4785 20.0355 43.4785 19.3838C43.4785 18.4723 43.2484 17.8206 42.7881 17.4287C42.5055 17.1917 42.1774 17.0732 41.8037 17.0732C41.234 17.0732 40.8148 17.2897 40.5459 17.7227C40.2816 18.151 40.1494 18.6842 40.1494 19.3223C40.1494 20.0104 40.2839 20.5618 40.5527 20.9766C40.8262 21.3867 41.2386 21.5918 41.79 21.5918ZM51.2852 19.377C51.1621 19.4544 51.0368 19.5182 50.9092 19.5684C50.7861 19.6139 50.6152 19.6572 50.3965 19.6982L49.959 19.7803C49.5488 19.8532 49.2549 19.9421 49.0771 20.0469C48.7764 20.2246 48.626 20.5003 48.626 20.874C48.626 21.2067 48.7171 21.4482 48.8994 21.5986C49.0863 21.7445 49.3118 21.8174 49.5762 21.8174C49.9954 21.8174 50.3805 21.6943 50.7314 21.4482C51.0869 21.2021 51.2715 20.7533 51.2852 20.1016V19.377ZM50.1025 18.4678C50.4626 18.4222 50.7201 18.3652 50.875 18.2969C51.153 18.1784 51.292 17.9938 51.292 17.7432C51.292 17.4378 51.1849 17.2282 50.9707 17.1143C50.7611 16.9958 50.4512 16.9365 50.041 16.9365C49.5807 16.9365 49.2549 17.0505 49.0635 17.2783C48.9268 17.4469 48.8356 17.6748 48.79 17.9619H46.9102C46.9512 17.3102 47.1335 16.7747 47.457 16.3555C47.972 15.6992 48.8561 15.3711 50.1094 15.3711C50.9251 15.3711 51.6497 15.5329 52.2832 15.8564C52.9167 16.18 53.2334 16.7907 53.2334 17.6885V21.1064C53.2334 21.3434 53.238 21.6305 53.2471 21.9678C53.2607 22.223 53.2995 22.3962 53.3633 22.4873C53.4271 22.5785 53.5228 22.6536 53.6504 22.7129V23H51.5312C51.472 22.8496 51.431 22.7083 51.4082 22.5762C51.3854 22.444 51.3672 22.2936 51.3535 22.125C51.0846 22.4167 50.7747 22.665 50.4238 22.8701C50.0046 23.1117 49.5306 23.2324 49.002 23.2324C48.3275 23.2324 47.7692 23.041 47.3271 22.6582C46.8896 22.2708 46.6709 21.724 46.6709 21.0176C46.6709 20.1016 47.0241 19.4385 47.7305 19.0283C48.1178 18.805 48.6875 18.6455 49.4395 18.5498L50.1025 18.4678ZM54.9492 12.958H56.8633V18.3857L59.29 15.583H61.7031L59.0986 18.4336L61.8057 23H59.4541L57.6699 19.8145L56.8633 20.6553V23H54.9492V12.958Z" fill="#0D28A6"/>
</svg>
